<?xml version="1.0" encoding="UTF-8" standalone="no"?>
<svg width="256px" height="361px" viewBox="0 0 256 361" version="1.1"
    xmlns="http://www.w3.org/2000/svg" xmlns:xlink="http://www.w3.org/1999/xlink"
    preserveAspectRatio="xMidYMid">
    <metadata>
        Created by potrace 1.16, written by Peter Selinger 2001-2019
</metadata>
    <g transform="translate(0.000000,300.000000) scale(0.100000,-0.100000)"
        fill="#000000" stroke="none">
        <path
            d="M1185 2961 c-191 -104 -1074 -616 -1105 -640 -19 -15 -45 -47 -57
-71 l-23 -43 0 -705 c0 -686 1 -707 20 -747 28 -59 46 -72 220 -173 85 -50
163 -97 173 -106 9 -9 17 -13 17 -10 0 3 22 -7 50 -23 27 -15 50 -31 50 -35 0
-5 5 -8 11 -8 10 0 119 -58 169 -90 34 -22 468 -269 507 -289 32 -16 60 -21
118 -21 81 0 102 8 215 75 30 19 62 35 70 37 8 2 19 8 25 14 15 17 698 407
713 407 6 0 12 4 12 8 0 11 60 42 60 32 0 -5 4 -2 8 4 4 7 44 34 87 60 53 32
90 63 110 91 l30 44 3 717 2 717 -23 44 c-12 24 -38 56 -57 71 -32 25 -1042
609 -1137 658 -33 16 -60 21 -120 21 -71 0 -84 -4 -148 -39z m388 -605 c211
-62 388 -191 502 -364 17 -25 24 -46 19 -52 -5 -4 -92 -56 -194 -115 l-185
-107 -14 24 c-30 47 -112 118 -170 148 -219 110 -480 22 -588 -198 -37 -75
-38 -78 -38 -191 0 -113 1 -118 37 -192 80 -164 247 -260 424 -245 128 10 238
69 311 165 21 28 42 50 47 50 15 1 376 -211 376 -222 0 -21 -91 -136 -158
-199 -423 -398 -1097 -293 -1387 217 -294 517 22 1188 612 1300 117 22 294 14
406 -19z m637 -681 l0 -35 50 0 50 0 0 35 c0 35 0 35 45 35 45 0 45 0 45 -34
0 -33 2 -35 38 -38 36 -3 37 -4 37 -43 0 -39 -1 -40 -37 -43 l-38 -3 0 -49 0
-49 38 -3 c37 -3 37 -3 37 -48 0 -45 0 -45 -37 -48 -36 -3 -38 -5 -38 -38 0
-35 0 -35 -42 -32 -40 3 -43 5 -46 36 -3 31 -4 32 -52 32 -48 0 -49 -1 -52
-32 -3 -31 -6 -33 -45 -36 l-43 -3 0 35 c0 34 -2 36 -35 36 l-35 0 0 50 0 50
35 0 35 0 0 50 0 50 -35 0 c-35 0 -35 0 -35 45 0 45 0 45 35 45 33 0 35 2 35
35 0 35 0 35 45 35 45 0 45 0 45 -35z" />
    </g>
</svg>