<?xml version="1.0" standalone="no"?>
<!DOCTYPE svg PUBLIC "-//W3C//DTD SVG 20010904//EN"
 "http://www.w3.org/TR/2001/REC-SVG-20010904/DTD/svg10.dtd">
<svg version="1.0" xmlns="http://www.w3.org/2000/svg"
 width="225.000000pt" height="225.000000pt" viewBox="0 0 225.000000 225.000000"
 preserveAspectRatio="xMidYMid meet">
<metadata>
Created by potrace 1.16, written by Peter Selinger 2001-2019
</metadata>
<g transform="translate(0.000000,225.000000) scale(0.100000,-0.100000)"
fill="#000000" stroke="none">
<path d="M50 2237 c-52 -26 -50 14 -47 -1124 l2 -1062 23 -23 23 -23 1074 0
1074 0 23 23 23 23 0 1074 0 1074 -23 23 -23 23 -1062 2 c-839 2 -1067 0
-1087 -10z m1200 -1092 l0 -95 -140 0 -140 0 0 -410 0 -410 -120 0 -120 0 0
410 0 410 -140 0 -140 0 0 95 0 95 400 0 400 0 0 -95z m690 73 l45 -14 3 -107
c2 -98 -4 -127 -23 -97 -3 5 -36 19 -73 31 -85 27 -203 29 -249 6 -64 -34 -80
-86 -39 -134 26 -30 35 -35 196 -112 174 -82 232 -157 232 -298 0 -194 -141
-297 -407 -296 -105 0 -221 19 -266 43 -17 10 -19 22 -19 126 l0 115 29 -21
c68 -48 141 -73 230 -77 76 -4 91 -2 131 19 59 30 72 65 45 116 -17 32 -39 46
-161 107 -163 81 -204 109 -238 168 -105 178 -8 378 208 431 74 19 288 15 356
-6z"/>
</g>
</svg>
