<?xml version="1.0" standalone="no"?>
<!DOCTYPE svg PUBLIC "-//W3C//DTD SVG 20010904//EN"
 "http://www.w3.org/TR/2001/REC-SVG-20010904/DTD/svg10.dtd">
<svg version="1.0" xmlns="http://www.w3.org/2000/svg"
 width="225.000000pt" height="225.000000pt" viewBox="0 0 225.000000 225.000000"
 preserveAspectRatio="xMidYMid meet">
<metadata>
Created by potrace 1.16, written by Peter Selinger 2001-2019
</metadata>
<g transform="translate(0.000000,225.000000) scale(0.100000,-0.100000)"
fill="#000000" stroke="none">
<path d="M1942 1715 c-8 -16 -17 -23 -27 -19 -9 4 -25 -2 -35 -11 -21 -19 -28
-7 -8 13 9 9 9 12 0 12 -7 0 -12 -5 -12 -11 0 -7 -10 -9 -27 -5 -16 4 -23 3
-16 -2 15 -9 -7 -31 -59 -58 -18 -10 -27 -19 -20 -21 22 -8 13 -33 -12 -33
-15 0 -26 -7 -29 -20 -3 -11 -11 -20 -17 -20 -7 0 -10 7 -6 16 3 9 6 20 6 25
0 5 7 9 15 9 8 0 15 4 15 9 0 6 -9 9 -20 8 -11 -1 -20 -8 -20 -15 0 -9 -6 -12
-16 -8 -9 3 -19 6 -22 6 -4 0 0 5 8 10 11 7 6 8 -19 5 -18 -2 -36 -7 -40 -11
-3 -4 2 -4 12 -1 9 4 17 2 17 -3 0 -6 6 -10 13 -10 6 0 18 -4 26 -9 11 -7 5
-27 -33 -101 -35 -67 -45 -95 -37 -103 6 -6 11 -15 11 -21 0 -5 -6 -2 -12 7
-11 14 -42 -41 -217 -389 -113 -222 -211 -410 -218 -415 -16 -14 -33 -3 -33
23 0 12 16 102 36 200 32 156 38 233 16 203 -4 -6 -11 -10 -17 -11 -5 -1 -32
-7 -58 -14 -28 -8 -52 -9 -57 -4 -7 8 -4 39 13 134 2 14 2 19 0 11 -3 -9 -14
-11 -33 -7 -28 5 -29 3 -38 -47 -8 -41 -10 -45 -11 -19 0 17 -5 32 -9 32 -5 0
-38 -29 -73 -65 -35 -35 -67 -65 -70 -65 -4 0 -10 12 -14 27 -5 21 -8 24 -16
12 -5 -7 -9 -18 -9 -24 0 -5 4 -4 9 3 6 10 10 7 15 -13 4 -17 2 -32 -4 -39 -7
-6 -10 -7 -8 -1 2 6 -7 21 -19 35 -13 13 -23 21 -23 18 0 -11 148 -289 184
-347 13 -20 40 -67 61 -104 95 -174 121 -212 147 -215 21 -3 30 5 51 40 29 51
237 421 312 558 29 52 61 111 72 130 11 19 37 67 57 105 21 39 53 95 72 126
19 31 34 59 34 62 0 3 20 40 45 81 25 42 45 79 45 81 0 3 11 22 23 43 13 20
22 43 19 51 -2 8 -1 11 4 8 5 -3 17 8 27 24 9 17 11 27 4 22 -6 -4 0 8 16 26
15 18 27 41 27 52 0 11 4 18 8 15 4 -2 9 6 10 20 2 31 -2 30 -16 -1z"/>
</g>
</svg>
