<?xml version="1.0" standalone="no"?>
<!DOCTYPE svg PUBLIC "-//W3C//DTD SVG 20010904//EN" "http://www.w3.org/TR/2001/REC-SVG-20010904/DTD/svg10.dtd">
<svg version="1.0" xmlns="http://www.w3.org/2000/svg"
    width="225.000000pt" height="225.000000pt" viewBox="0 0 225.000000 225.000000"
    preserveAspectRatio="xMidYMid meet">
    <metadata> Created by potrace 1.16, written by Peter Selinger 2001-2019 </metadata>
    <g transform="translate(0.000000,225.000000) scale(0.100000,-0.100000)"
        fill="#000000" stroke="none">
        <path
            d="M524 1946 c-54 -25 -94 -69 -113 -125 -8 -24 -10 -224 -9 -705 l3
-671 5 685 c5 670 5 686 26 725 13 25 39 51 69 70 l48 30 534 3 c359 2 547 -1
574 -8 53 -14 116 -73 129 -119 8 -24 10 -264 8 -733 l-3 -696 -31 -39 c-67
-82 -31 -77 -644 -83 l-545 -5 525 -3 c346 -1 538 2 563 9 21 6 56 26 77 45
74 67 70 22 70 793 0 557 -3 698 -13 724 -19 44 -87 103 -134 116 -25 7 -223
11 -563 11 l-525 0 -51 -24z" />
        <path
            d="M1110 1630 l0 -40 245 0 245 0 0 40 0 40 -245 0 -245 0 0 -40z m480
0 l0 -30 -235 0 -235 0 0 30 0 30 235 0 235 0 0 -30z" />
        <path
            d="M754 1622 c-49 -39 -57 -95 -20 -139 l25 -29 -35 -13 c-62 -22 -98
-120 -56 -152 14 -11 15 -11 5 1 -30 33 -5 117 42 138 39 18 41 17 55 -45 l14
-57 9 35 c6 22 5 40 -2 51 -16 26 -14 28 25 28 30 0 35 -3 29 -17 -8 -21 -8
-21 -6 -50 2 -37 17 -26 27 20 8 37 13 42 34 39 54 -5 94 -104 58 -140 -8 -8
-57 -13 -142 -14 l-131 -2 129 -3 c149 -4 166 3 166 67 0 62 -71 128 -106 99
-10 -8 -14 -8 -14 -1 0 6 9 16 20 22 30 16 52 66 45 100 -10 45 -58 80 -108
80 -25 0 -51 -8 -63 -18z m129 -12 c33 -26 43 -70 23 -107 -17 -35 -46 -50
-106 -56 -25 -3 -40 -3 -34 0 7 2 0 16 -17 33 -37 36 -38 78 -3 119 21 26 33
31 69 31 27 0 51 -7 68 -20z" />
        <path
            d="M1110 1445 l0 -45 245 0 245 0 0 45 0 45 -245 0 -245 0 0 -45z m480
0 l0 -35 -235 0 -235 0 0 35 0 35 235 0 235 0 0 -35z" />
        <path
            d="M1110 1260 l0 -40 245 0 245 0 0 40 0 40 -245 0 -245 0 0 -40z m480
0 l0 -30 -235 0 -235 0 0 30 0 30 235 0 235 0 0 -30z" />
        <path
            d="M620 1075 l0 -45 490 0 490 0 0 45 0 45 -490 0 -490 0 0 -45z m970 0
l0 -35 -480 0 -480 0 0 35 0 35 480 0 480 0 0 -35z" />
        <path
            d="M620 890 l0 -40 490 0 490 0 0 40 0 40 -490 0 -490 0 0 -40z m970 0
l0 -30 -480 0 -480 0 0 30 0 30 480 0 480 0 0 -30z" />
    </g>
</svg>